<svg width="137" height="132" viewBox="0 0 137 132" fill="none" xmlns="http://www.w3.org/2000/svg">
<g clip-path="url(#clip0)">
<path d="M33.6115 55.815H26.5915V62.5796H34.5869V63.1244H26.0781V48.3789H34.5869V48.9236H26.5915V55.2702H33.6115V55.815Z" fill="white"/>
<path d="M37.654 63.1371H37.1406V47.5681H37.654V63.1371Z" fill="white"/>
<path d="M44.8029 63.3397C43.9687 63.3397 43.1987 63.099 42.4928 62.6303C41.787 62.149 41.2351 61.5029 40.8501 60.6668C40.4523 59.8307 40.2598 58.9186 40.2598 57.9052V57.4491C40.2598 56.4357 40.4523 55.511 40.8373 54.6622C41.2223 53.8134 41.7485 53.1547 42.4287 52.686C43.096 52.2173 43.8404 51.9766 44.6232 51.9766C45.7783 51.9766 46.728 52.4073 47.4723 53.2814C48.2038 54.1555 48.576 55.2956 48.576 56.7144V57.2971H40.7859V57.8925C40.7859 58.7793 40.9656 59.6027 41.325 60.3628C41.6843 61.1229 42.172 61.7182 42.8008 62.149C43.4297 62.5797 44.097 62.795 44.8286 62.795C45.5216 62.795 46.1248 62.6683 46.6125 62.4276C47.1001 62.187 47.5365 61.8069 47.9087 61.3002L48.2808 61.5789C47.4851 62.7443 46.3301 63.3397 44.8029 63.3397ZM44.6104 52.5086C43.5965 52.5086 42.7367 52.9014 42.0308 53.6994C41.325 54.4975 40.9143 55.511 40.7859 56.7397H48.037V56.6131C48.037 55.8657 47.883 55.1816 47.5878 54.5355C47.2926 53.9021 46.882 53.3954 46.3558 53.0407C45.8424 52.686 45.2649 52.5086 44.6104 52.5086Z" fill="white"/>
<path d="M54.5049 62.7824C55.4418 62.7824 56.2247 62.5164 56.8407 61.997C57.4567 61.4649 57.7904 60.7429 57.8417 59.8054H58.355C58.3037 60.8695 57.9187 61.7183 57.1872 62.3644C56.4685 63.0104 55.5701 63.3271 54.4921 63.3271C53.1959 63.3271 52.1564 62.8331 51.3863 61.8323C50.6163 60.8442 50.2441 59.4887 50.2441 57.7912V57.4239C50.2441 55.7644 50.6292 54.4342 51.3863 53.4461C52.1564 52.458 53.1831 51.9513 54.4664 51.9513C55.5701 51.9513 56.4813 52.2933 57.2 52.9901C57.9187 53.6868 58.3037 54.6116 58.3422 55.7644H57.8289C57.7775 54.7763 57.4567 53.9908 56.8407 53.3828C56.2247 52.7874 55.4418 52.4834 54.4664 52.4834C53.3114 52.4834 52.4002 52.9267 51.7457 53.8008C51.0912 54.6876 50.7575 55.9037 50.7575 57.4745V57.8292C50.7575 59.3621 51.0912 60.5655 51.7585 61.4396C52.4387 62.3517 53.3499 62.7824 54.5049 62.7824Z" fill="white"/>
<path d="M64.502 62.7824C65.4389 62.7824 66.2217 62.5164 66.8377 61.997C67.4538 61.4649 67.7874 60.7429 67.8388 59.8054H68.3521C68.3008 60.8695 67.9158 61.7183 67.1842 62.3644C66.4656 63.0104 65.5672 63.3271 64.4892 63.3271C63.193 63.3271 62.1534 62.8331 61.3834 61.8323C60.6134 60.8442 60.2412 59.4887 60.2412 57.7912V57.4239C60.2412 55.7644 60.6262 54.4342 61.3834 53.4461C62.1534 52.458 63.1801 51.9513 64.4635 51.9513C65.5672 51.9513 66.4784 52.2933 67.1971 52.9901C67.9158 53.6868 68.3008 54.6116 68.3393 55.7644H67.8259C67.7746 54.7763 67.4538 53.9908 66.8377 53.3828C66.2217 52.7874 65.4389 52.4834 64.4635 52.4834C63.3085 52.4834 62.3973 52.9267 61.7428 53.8008C61.0882 54.6876 60.7546 55.9037 60.7546 57.4745V57.8292C60.7546 59.3621 61.0882 60.5655 61.7556 61.4396C62.4229 62.3517 63.3341 62.7824 64.502 62.7824Z" fill="white"/>
<path d="M70.8164 48.7463C70.8164 48.5943 70.8677 48.4549 70.9704 48.3409C71.0731 48.2269 71.2014 48.1762 71.3426 48.1762C71.4838 48.1762 71.6121 48.2269 71.7276 48.3409C71.8303 48.4549 71.8816 48.5816 71.8816 48.7463C71.8816 48.911 71.8303 49.0376 71.7276 49.139C71.6249 49.2403 71.4966 49.3037 71.3426 49.3037C71.1886 49.3037 71.0731 49.253 70.9704 49.139C70.8677 49.025 70.8164 48.8983 70.8164 48.7463ZM71.5993 63.1371H71.0859V52.1666H71.5993V63.1371Z" fill="white"/>
<path d="M74.2178 57.4364C74.2178 56.385 74.4103 55.4476 74.7953 54.6115C75.1803 53.7754 75.7193 53.1293 76.4123 52.6606C77.1054 52.1919 77.8882 51.9639 78.7737 51.9639C79.6464 51.9639 80.4293 52.1919 81.1223 52.648C81.8153 53.104 82.3544 53.7374 82.7394 54.5735C83.1244 55.4096 83.3297 56.3343 83.3297 57.3858V57.8672C83.3297 58.9186 83.1372 59.8687 82.765 60.6921C82.3929 61.5282 81.8538 62.1743 81.1608 62.643C80.455 63.099 79.6593 63.3397 78.7866 63.3397C77.9139 63.3397 77.1182 63.1117 76.4252 62.6556C75.7322 62.1996 75.1931 61.5535 74.8081 60.7301C74.4231 59.9067 74.2306 58.9693 74.2178 57.9432V57.4364ZM74.744 57.8672C74.744 58.7793 74.9108 59.6153 75.2573 60.3754C75.6038 61.1355 76.0787 61.7309 76.6947 62.1489C77.3107 62.567 78.0037 62.7823 78.7994 62.7823C79.9801 62.7823 80.9555 62.3136 81.6998 61.3762C82.4442 60.4388 82.8164 59.2226 82.8164 57.7531V57.4364C82.8164 56.537 82.6495 55.7009 82.303 54.9409C81.9565 54.1808 81.456 53.5854 80.8528 53.1547C80.2496 52.724 79.5438 52.5086 78.7737 52.5086C77.593 52.5086 76.6177 52.99 75.8733 53.9401C75.129 54.8902 74.744 56.0936 74.744 57.5378V57.8672Z" fill="white"/>
<path d="M86.3579 54.7255C86.6916 53.8768 87.1921 53.2054 87.8595 52.7113C88.514 52.2173 89.2455 51.9766 90.054 51.9766C91.1706 51.9766 91.9919 52.306 92.5438 52.9774C93.0956 53.6488 93.3523 54.6495 93.3651 55.9923V63.1497H92.8518V55.9797C92.8518 54.8015 92.6208 53.9401 92.1716 53.3701C91.7224 52.8 91.0166 52.5213 90.0412 52.5213C89.1429 52.5213 88.3728 52.8507 87.7055 53.5221C87.0381 54.1935 86.6018 55.0549 86.3708 56.119V63.1371H85.8574V52.1666H86.3708V54.7255H86.3579Z" fill="white"/>
<path d="M100.347 63.3397C99.5127 63.3397 98.7426 63.099 98.0368 62.6303C97.3309 62.149 96.7791 61.5029 96.3941 60.6668C95.9962 59.8307 95.8037 58.9186 95.8037 57.9052V57.4491C95.8037 56.4357 95.9962 55.511 96.3812 54.6622C96.7662 53.8134 97.2924 53.1547 97.9726 52.686C98.64 52.2173 99.3843 51.9766 100.167 51.9766C101.322 51.9766 102.272 52.4073 103.016 53.2814C103.748 54.1555 104.12 55.2956 104.12 56.7144V57.2971H96.3299V57.8925C96.3299 58.7793 96.5096 59.6027 96.8689 60.3628C97.2283 61.1229 97.7159 61.7182 98.3448 62.149C98.9736 62.5797 99.641 62.795 100.373 62.795C101.066 62.795 101.669 62.6683 102.156 62.4276C102.644 62.187 103.08 61.8069 103.453 61.3002L103.825 61.5789C103.029 62.7443 101.874 63.3397 100.347 63.3397ZM100.154 52.5086C99.1405 52.5086 98.2806 52.9014 97.5748 53.6994C96.8689 54.4975 96.4582 55.511 96.3299 56.7397H103.581V56.6131C103.581 55.8657 103.427 55.1816 103.132 54.5355C102.837 53.9021 102.426 53.3954 101.9 53.0407C101.386 52.686 100.809 52.5086 100.154 52.5086Z" fill="white"/>
<path d="M112.937 60.4515C112.937 59.1213 111.859 58.2092 109.703 57.7405C108.407 57.4491 107.508 57.0818 107.008 56.6257C106.507 56.1697 106.251 55.549 106.251 54.7509C106.251 53.9528 106.572 53.2814 107.213 52.762C107.855 52.2426 108.689 51.9766 109.729 51.9766C110.845 51.9766 111.756 52.2553 112.424 52.8253C113.091 53.3954 113.438 54.1555 113.438 55.1056H112.911C112.911 54.3708 112.616 53.7501 112.026 53.2561C111.435 52.762 110.665 52.5213 109.716 52.5213C108.805 52.5213 108.086 52.7367 107.56 53.1547C107.034 53.5728 106.764 54.0921 106.764 54.7255C106.764 55.2196 106.867 55.6123 107.059 55.891C107.265 56.1697 107.585 56.423 108.035 56.6511C108.484 56.8791 109.138 57.0944 109.998 57.3098C110.858 57.5252 111.538 57.7658 112.039 58.0445C112.539 58.3232 112.899 58.6653 113.13 59.058C113.361 59.4507 113.463 59.9194 113.463 60.4768C113.463 61.3382 113.13 62.0349 112.449 62.567C111.782 63.0737 110.896 63.3397 109.806 63.3397C108.638 63.3397 107.701 63.061 106.982 62.5037C106.264 61.9463 105.917 61.2242 105.917 60.3501H106.43C106.482 61.1228 106.803 61.7182 107.393 62.149C107.983 62.5797 108.792 62.795 109.806 62.795C110.73 62.795 111.487 62.567 112.064 62.1109C112.655 61.6422 112.937 61.0975 112.937 60.4515Z" fill="white"/>
<path d="M38.2964 96.4284H37.7574V90.2465L35.9863 90.9432V90.4111L38.2066 89.537H38.2964V96.4284Z" fill="white"/>
<path d="M45.2007 96.4284H44.6617V90.2465L42.8906 90.9432V90.4111L45.1109 89.537H45.2007V96.4284Z" fill="white"/>
<path d="M53.8633 96.4284V89.5623H55.6857C56.2247 89.5623 56.6995 89.689 57.123 89.9424C57.5466 90.1957 57.8802 90.5631 58.1112 91.0445C58.3423 91.5259 58.4706 92.0706 58.4706 92.6787V93.3121C58.4706 93.9201 58.3551 94.4649 58.1112 94.9462C57.8674 95.4276 57.5466 95.7823 57.1102 96.0484C56.6867 96.3017 56.1862 96.4411 55.6343 96.4411H53.8633V96.4284ZM54.4151 90.0564V95.947H55.6472C56.3402 95.947 56.8792 95.7063 57.3027 95.2249C57.7134 94.7435 57.9187 94.0975 57.9187 93.2741V92.666C57.9187 91.8806 57.7134 91.2472 57.3027 90.7658C56.892 90.2844 56.353 90.0564 55.6857 90.0437H54.4151V90.0564Z" fill="white"/>
<path d="M65.2987 93.1347H62.2442V95.9343H65.7478V96.4284H61.6924V89.5623H65.7222V90.0564H62.2442V92.6533H65.2858V93.1347H65.2987Z" fill="white"/>
<path d="M76.2972 94.5029H73.3455L72.6781 96.4284H72.1006L74.5647 89.5623H75.0908L77.5549 96.4284H76.9774L76.2972 94.5029ZM73.5123 94.0088H76.1304L74.8213 90.2718L73.5123 94.0088Z" fill="white"/>
<path d="M80.3271 96.4284V89.5623H82.2522C82.9452 89.5623 83.4842 89.7144 83.8436 90.0184C84.2029 90.3224 84.3826 90.7658 84.3826 91.3612C84.3826 91.7159 84.2928 92.0199 84.1131 92.286C83.9334 92.552 83.6767 92.742 83.3559 92.856C83.7281 92.9447 84.0361 93.1347 84.2671 93.4388C84.4981 93.7428 84.6136 94.0975 84.6136 94.4902C84.6136 95.0982 84.4339 95.567 84.0618 95.909C83.6896 96.251 83.1762 96.4157 82.5089 96.4157H80.3271V96.4284ZM80.879 92.6407H82.3805C82.8426 92.628 83.1891 92.514 83.4457 92.2986C83.7024 92.0833 83.8179 91.7666 83.8179 91.3359C83.8179 90.8925 83.6896 90.5758 83.4329 90.3604C83.1762 90.1451 82.7784 90.0437 82.2522 90.0437H80.879V92.6407ZM80.879 93.1347V95.947H82.5345C83.0094 95.947 83.3816 95.8203 83.6511 95.567C83.9206 95.3136 84.0618 94.9589 84.0618 94.5155C84.0618 94.0975 83.9334 93.7554 83.6639 93.5148C83.3944 93.2741 83.0351 93.1474 82.573 93.1474H80.879V93.1347Z" fill="white"/>
<path d="M90.2089 93.5654H88.3224V96.4284H87.7705V89.5623H89.8881C90.5811 89.5623 91.1201 89.7397 91.518 90.0944C91.903 90.4491 92.1083 90.9432 92.1083 91.5892C92.1083 92.0326 91.9928 92.4126 91.7361 92.7547C91.4923 93.0967 91.1586 93.3247 90.7479 93.4514L92.3778 96.3777V96.4411H91.7875L90.2089 93.5654ZM88.3224 93.0841H90.0036C90.4656 93.0841 90.8378 92.9447 91.1201 92.666C91.4025 92.3873 91.5436 92.0326 91.5436 91.5892C91.5436 91.1078 91.4025 90.7278 91.1073 90.4618C90.8121 90.1958 90.4014 90.0564 89.8752 90.0564H88.3224V93.0841Z" fill="white"/>
<path d="M96.0997 96.4284H95.5479V89.5623H96.0997V96.4284Z" fill="white"/>
<path d="M100.232 95.947H103.453V96.4411H99.6797V89.5623H100.232V95.947Z" fill="white"/>
<path d="M34.6638 79.2633C34.2274 79.77 33.5857 80.1881 32.7516 80.4921C31.9174 80.7961 30.9933 80.9608 29.9923 80.9608C28.4523 80.9608 27.2202 80.4668 26.309 79.466C25.385 78.4779 24.8973 77.0844 24.8331 75.3236L24.8203 74.2468C24.8203 73.0307 25.0257 71.9666 25.4363 71.0545C25.847 70.1424 26.4245 69.4457 27.1946 68.9516C27.9517 68.4576 28.8373 68.2169 29.8383 68.2169C31.3013 68.2169 32.4435 68.5716 33.2521 69.281C34.0606 69.9904 34.5354 71.0418 34.6638 72.448H31.9302C31.8275 71.7512 31.6222 71.2572 31.3013 70.9658C30.9805 70.6744 30.5185 70.5224 29.9281 70.5224C29.2223 70.5224 28.6704 70.8391 28.2854 71.4725C27.9004 72.1059 27.6951 73.018 27.6951 74.1961V74.9435C27.6951 76.185 27.9004 77.1098 28.2983 77.7305C28.6961 78.3512 29.325 78.6679 30.1848 78.6679C30.9163 78.6679 31.4682 78.4906 31.8275 78.1485V76.223H29.864V74.1708H34.6638V79.2633Z" fill="white"/>
<path d="M43.5962 75.5262H39.1429V78.4905H44.4047V80.7834H36.3066V68.4069H44.4176V70.7124H39.1429V73.322H43.5962V75.5262Z" fill="white"/>
<path d="M55.3645 80.7961H52.5411L48.383 73.0813V80.7961H45.5596V68.4069H48.3958L52.554 76.1216V68.4069H55.3774V80.7961H55.3645Z" fill="white"/>
<path d="M64.4507 75.5262H59.9974V78.4905H65.2592V80.7834H57.1611V68.4069H65.272V70.7124H59.9974V73.322H64.4507V75.5262Z" fill="white"/>
<path d="M70.7775 76.413H69.2503V80.7961H66.4141V68.4069H71.0342C72.4331 68.4069 73.5111 68.7362 74.3068 69.3823C75.1025 70.0284 75.4875 70.9531 75.4875 72.1439C75.4875 73.0053 75.3207 73.7147 74.987 74.2848C74.6533 74.8548 74.14 75.3109 73.4341 75.6656L75.8854 80.6694V80.7961H72.8566L70.7775 76.413ZM69.2375 74.1074H71.0342C71.5732 74.1074 71.9711 73.9554 72.2534 73.6641C72.5229 73.36 72.6641 72.942 72.6641 72.4099C72.6641 71.8779 72.5229 71.4598 72.2534 71.1558C71.9839 70.8518 71.5732 70.6998 71.047 70.6998H69.2503V74.1074H69.2375Z" fill="white"/>
<path d="M83.8681 78.4779H79.9795L79.2993 80.7961H76.2705L80.5826 68.4069H83.2521L87.5899 80.7961H84.5483L83.8681 78.4779ZM80.6596 76.1723H83.1879L81.9173 71.8779L80.6596 76.1723Z" fill="white"/>
<path d="M91.2864 78.4905H96.2146V80.7834H88.4502V68.4069H91.2864V78.4905Z" fill="white"/>
<path d="M104.698 75.5262H100.244V78.4905H105.506V80.7834H97.4082V68.4069H105.519V70.7124H100.244V73.322H104.698V75.5262Z" fill="white"/>
<path d="M112.719 77.5025C112.719 77.0718 112.578 76.7297 112.283 76.4764C111.987 76.223 111.474 75.9823 110.743 75.7163C110.011 75.4503 109.408 75.1969 108.933 74.9562C107.406 74.1708 106.649 73.0814 106.649 71.7005C106.649 71.0165 106.841 70.4084 107.213 69.889C107.598 69.3696 108.124 68.9516 108.817 68.6602C109.51 68.3689 110.293 68.2169 111.153 68.2169C112 68.2169 112.757 68.3815 113.425 68.6982C114.092 69.0149 114.618 69.471 114.99 70.0537C115.363 70.6364 115.542 71.3078 115.542 72.0679H112.719C112.719 71.5612 112.578 71.1685 112.283 70.8898C111.987 70.6111 111.59 70.4718 111.089 70.4718C110.588 70.4718 110.178 70.5858 109.895 70.8265C109.6 71.0671 109.459 71.3585 109.459 71.7259C109.459 72.0426 109.626 72.3339 109.947 72.5873C110.268 72.8407 110.832 73.1194 111.654 73.3854C112.462 73.6641 113.13 73.9554 113.656 74.2721C114.926 75.0449 115.555 76.109 115.555 77.4645C115.555 78.5539 115.17 79.4027 114.387 80.0234C113.604 80.6441 112.552 80.9482 111.205 80.9482C110.255 80.9482 109.395 80.7708 108.612 80.4034C107.829 80.0361 107.265 79.5547 106.867 78.9213C106.469 78.2879 106.276 77.5658 106.276 76.7551H109.113C109.113 77.4138 109.279 77.9078 109.6 78.2245C109.921 78.5412 110.46 78.6933 111.192 78.6933C111.654 78.6933 112.026 78.5919 112.295 78.3766C112.565 78.1612 112.719 77.8825 112.719 77.5025Z" fill="white"/>
<path d="M12.6671 18.0138C4.37652 29.9343 -0.115283 44.6165 0.000220194 59.476C0.0258876 62.8963 0.295396 66.342 0.808745 69.7117L6.64809 68.6349C6.19891 65.5946 5.95507 62.5036 5.9294 59.4253C5.82673 45.934 9.88219 32.6199 17.3899 21.7888L12.6671 18.0138Z" fill="white"/>
<path d="M49.5254 128.782C65.1184 134.014 82.3797 132.823 97.2027 125.501L94.6103 119.889C81.1734 126.502 65.5547 127.579 51.4119 122.854L49.5254 128.782Z" fill="white"/>
<path opacity="0.5" d="M110.858 11.7052C113.977 14.5302 116.813 17.7098 119.303 21.1428C122.383 25.3866 124.924 30.0357 126.862 34.9635C129.018 40.4488 130.43 46.2634 131.033 52.23C131.456 56.423 131.482 60.6541 131.11 64.8092L126.58 64.3532C126.926 60.5148 126.9 56.6004 126.503 52.7367C125.938 47.2261 124.642 41.8676 122.652 36.8004C120.869 32.2653 118.52 27.9708 115.684 24.0564C113.387 20.8895 110.768 17.9505 107.881 15.3409L110.858 11.7052Z" fill="white"/>
<path d="M131.212 44.1225C129.402 36.1797 126.194 28.7942 121.664 22.1816C118.84 18.0518 115.516 14.2768 111.795 10.9578C109.497 8.90557 107.033 7.03071 104.492 5.37121L107.521 0C110.357 1.83685 113.078 3.9144 115.632 6.19463C119.726 9.84299 123.371 13.9981 126.476 18.5332C131.469 25.8426 135.011 33.9881 137 42.767L131.212 44.1225Z" fill="white"/>
<path d="M74.3457 19.952C73.9736 19.9394 73.6784 20.1167 73.4731 20.4841C73.2677 20.8641 73.165 21.4089 73.165 22.1436V25.678C73.165 26.4254 73.2677 26.9828 73.4731 27.3501C73.6784 27.7175 73.9736 27.8949 74.3457 27.8695C74.7051 27.8568 74.9874 27.6542 75.1928 27.2741C75.3981 26.8941 75.488 26.3494 75.488 25.6273V22.1943C75.488 21.4849 75.3853 20.9401 75.1799 20.5601C75.0003 20.1674 74.7179 19.9647 74.3457 19.952Z" fill="white"/>
<path d="M57.123 4.68716V41.3355L92.711 35.5463V10.4764L57.123 4.68716ZM69.5076 30.1751L60.909 30.8465V28.7563L64.9131 24.0945C65.4265 23.4737 65.7986 22.9417 66.0297 22.4603C66.2607 21.9916 66.3762 21.5735 66.3762 21.2315C66.3762 20.7248 66.2735 20.3321 66.0553 20.0281C65.8371 19.724 65.5035 19.5593 65.0286 19.534C64.5794 19.5087 64.2201 19.6987 63.9634 20.0787C63.7067 20.4588 63.5784 20.9655 63.5784 21.5735L60.5625 21.5102L60.5497 21.4469C60.524 20.1674 60.9347 19.1033 61.7817 18.2672C62.6159 17.4438 63.7067 17.0891 65.0158 17.1778C66.3505 17.2791 67.3644 17.6845 68.0574 18.4192C68.7376 19.1413 69.0841 20.0787 69.0841 21.2695C69.0841 22.0676 68.8916 22.7643 68.5194 23.3724C68.1344 23.9931 67.4285 24.9179 66.389 26.1593L64.9003 28.1229L64.9131 28.1735L69.4819 27.9455V30.1751H69.5076ZM77.6955 25.3993C77.6955 26.7421 77.4003 27.8188 76.81 28.6296C76.2068 29.4403 75.3983 29.8964 74.3587 29.9851C73.2935 30.0737 72.4208 29.7317 71.7407 28.959C71.0605 28.1735 70.714 27.0461 70.714 25.5639V22.2956C70.714 20.8261 71.0605 19.686 71.7407 18.9006C72.408 18.1279 73.2807 17.7732 74.3459 17.8492C75.3726 17.9252 76.194 18.3686 76.7971 19.1793C77.4003 19.9774 77.6955 21.0542 77.6955 22.397V25.3993ZM84.6 29.0096L78.8634 29.453V27.7682L81.52 23.9931C81.8665 23.4991 82.1103 23.043 82.2643 22.663C82.4183 22.2703 82.4953 21.9409 82.4953 21.6495C82.4953 21.2442 82.4312 20.9148 82.29 20.6614C82.1488 20.4081 81.9178 20.2814 81.597 20.2687C81.3018 20.2561 81.0579 20.4081 80.8911 20.7121C80.7243 21.0288 80.6344 21.4342 80.6344 21.9282L78.6452 21.8902L78.6324 21.8396C78.6067 20.8135 78.889 19.952 79.4409 19.2553C79.9927 18.5839 80.7114 18.2799 81.5841 18.3432C82.4825 18.4066 83.1627 18.7359 83.6247 19.3313C84.0867 19.914 84.3177 20.6868 84.3177 21.6622C84.3177 22.3209 84.1894 22.891 83.9327 23.3977C83.676 23.9044 83.2012 24.6645 82.4953 25.678L81.4943 27.2741L81.5071 27.3121L84.5872 27.1474V29.0096H84.6ZM89.079 28.6676L87.4876 28.7943V21.9282L86.0503 21.8776V20.0914L89.0918 18.8879V28.6676H89.079Z" fill="white"/>
<path opacity="0.5" d="M30.801 9.26028L33.5475 13.086C25.8472 19.2426 19.8282 27.4388 16.1449 36.7877C14.1685 41.8296 12.8723 47.1374 12.3076 52.572L7.77734 52.0526C8.39336 46.162 9.79224 40.4108 11.9355 34.9636C15.9268 24.8165 22.4591 15.9236 30.801 9.26028Z" fill="white"/>
<path opacity="0.5" d="M78.5934 118.572L79.3634 123.31C61.6144 126.502 43.7242 121.118 30.2744 108.539L33.2903 104.954C45.7005 116.558 62.2175 121.524 78.5934 118.572Z" fill="white"/>
<path opacity="0.5" d="M48.2295 10.4764L55.5961 4.68716V41.3355L48.2295 35.5463V10.4764Z" fill="white"/>
<path opacity="0.5" d="M79.7103 11.9079L70.8037 9.80501V0.0633545L79.7103 2.16623V11.9079Z" fill="white"/>
</g>
<defs>
<clipPath id="clip0">
<rect width="137" height="132" fill="white"/>
</clipPath>
</defs>
</svg>
